{
  "source": "C:\\Users\\Peter\\Desktop\\stuff\\MIUN\\quantitative_research\\video_compression\\videos\\BVI-HD\\BVI-HD_CDVL_videos\\ORIG\\ParkPlay_1920x1080_50fps.mp4",
  "output": "C:\\Users\\Peter\\Desktop\\stuff\\MIUN\\quantitative_research\\video_compression\\compressed_videos\\BVI-HD\\h264\\3\\ParkPlay_1920x1080_50fps_h264.mp4",
  "codec": "h264",
  "ok": "Input #0, mov,mp4,m4a,3gp,3g2,mj2, from 'C:\\Users\\Peter\\Desktop\\stuff\\MIUN\\quantitative_research\\video_compression\\videos\\BVI-HD\\BVI-HD_CDVL_videos\\ORIG\\ParkPlay_1920x1080_50fps.mp4':\n  Metadata:\n    major_brand     : isom\n    minor_version   : 512\n    compatible_brands: isomiso2avc1mp41\n    encoder         : Lavf54.28.101\n  Duration: 00:00:05.00, start: 0.000000, bitrate: 620563 kb/s\n  Stream #0:0[0x1](und): Video: h264 (High 4:4:4 Predictive) (avc1 / 0x31637661), yuv420p(progressive), 1920x1080, 620558 kb/s, 50 fps, 50 tbr, 50 tbn (default)\n    Metadata:\n      handler_name    : VideoHandler\n      vendor_id       : [0][0][0][0]\n[out#0/mp4 @ 0000020f87769980] Codec AVOption b:a (set bitrate (in bits/s)) has not been used for any stream. The most likely reason is either wrong type (e.g. a video option with no video streams) or that it is a private option of some decoder which was not actually used for any stream.\nStream mapping:\n  Stream #0:0 -> #0:0 (h264 (native) -> h264 (libx264))\nPress [q] to stop, [?] for help\n[libx264 @ 0000020f87df59c0] using cpu capabilities: MMX2 SSE2Fast SSSE3 SSE4.2 AVX FMA3 BMI2 AVX2\n[libx264 @ 0000020f87df59c0] profile High, level 5.0, 4:2:0, 8-bit\n[libx264 @ 0000020f87df59c0] 264 - core 165 r3222 b35605a - H.264/MPEG-4 AVC codec - Copyleft 2003-2025 - http://www.videolan.org/x264.html - options: cabac=1 ref=5 deblock=1:0:0 analyse=0x3:0x113 me=hex subme=8 psy=1 psy_rd=1.00:0.00 mixed_ref=1 me_range=16 chroma_me=1 trellis=2 8x8dct=1 cqm=0 deadzone=21,11 fast_pskip=1 chroma_qp_offset=-2 threads=18 lookahead_threads=3 sliced_threads=0 nr=0 decimate=1 interlaced=0 bluray_compat=0 constrained_intra=0 bframes=3 b_pyramid=2 b_adapt=1 b_bias=0 direct=3 weightb=1 open_gop=0 weightp=2 keyint=250 keyint_min=25 scenecut=40 intra_refresh=0 rc_lookahead=50 rc=cbr mbtree=1 bitrate=3000 ratetol=1.0 qcomp=0.60 qpmin=0 qpmax=69 qpstep=4 vbv_maxrate=3000 vbv_bufsize=3000 nal_hrd=none filler=0 ip_ratio=1.40 aq=1:1.00\nOutput #0, mp4, to 'C:\\Users\\Peter\\Desktop\\stuff\\MIUN\\quantitative_research\\video_compression\\compressed_videos\\BVI-HD\\h264\\3\\ParkPlay_1920x1080_50fps_h264.mp4':\n  Metadata:\n    major_brand     : isom\n    minor_version   : 512\n    compatible_brands: isomiso2avc1mp41\n    encoder         : Lavf62.3.100\n  Stream #0:0(und): Video: h264 (avc1 / 0x31637661), yuv420p(tv, progressive), 1920x1080, q=2-31, 3000 kb/s, 50 fps, 12800 tbn (default)\n    Metadata:\n      encoder         : Lavc62.11.100 libx264\n      handler_name    : VideoHandler\n      vendor_id       : [0][0][0][0]\n    Side data:\n      cpb: bitrate max/min/avg: 3000000/0/3000000 buffer size: 3000000 vbv_delay: N/A\nframe=    0 fps=0.0 q=0.0 size=       0KiB time=N/A bitrate=N/A speed=N/A elapsed=0:00:00.53    \nframe=    0 fps=0.0 q=0.0 size=       0KiB time=N/A bitrate=N/A speed=N/A elapsed=0:00:01.31    \nframe=    0 fps=0.0 q=0.0 size=       0KiB time=N/A bitrate=N/A speed=N/A elapsed=0:00:01.88    \nframe=    0 fps=0.0 q=0.0 size=       0KiB time=N/A bitrate=N/A speed=N/A elapsed=0:00:02.47    \nframe=   24 fps=7.8 q=44.0 size=       0KiB time=00:00:00.44 bitrate=   0.9kbits/s speed=0.143x elapsed=0:00:03.06    \nframe=   48 fps= 13 q=43.0 size=     256KiB time=00:00:00.84 bitrate=2497.1kbits/s speed=0.228x elapsed=0:00:03.68    \nframe=   64 fps= 15 q=43.0 size=     256KiB time=00:00:01.20 bitrate=1747.9kbits/s speed=0.28x elapsed=0:00:04.27    \nframe=   85 fps= 17 q=43.0 size=     512KiB time=00:00:01.66 bitrate=2526.9kbits/s speed=0.341x elapsed=0:00:04.86    \nframe=  109 fps= 20 q=43.0 size=     512KiB time=00:00:02.14 bitrate=1960.1kbits/s speed=0.395x elapsed=0:00:05.42    \nframe=  136 fps= 23 q=42.0 size=     768KiB time=00:00:02.64 bitrate=2383.3kbits/s speed=0.44x elapsed=0:00:05.99    \nframe=  159 fps= 24 q=42.0 size=    1024KiB time=00:00:03.06 bitrate=2741.5kbits/s speed=0.466x elapsed=0:00:06.57    \nframe=  176 fps= 25 q=42.0 size=    1024KiB time=00:00:03.44 bitrate=2438.7kbits/s speed=0.48x elapsed=0:00:07.16    \nframe=  213 fps= 27 q=41.0 size=    1280KiB time=00:00:04.20 bitrate=2496.7kbits/s speed=0.539x elapsed=0:00:07.79    \nframe=  237 fps= 28 q=-1.0 size=    1536KiB time=00:00:04.70 bitrate=2677.3kbits/s speed=0.564x elapsed=0:00:08.33    \n[mp4 @ 0000020f87769a80] Starting second pass: moving the moov atom to the beginning of the file\n[out#0/mp4 @ 0000020f87769980] video:1649KiB audio:0KiB subtitle:0KiB other streams:0KiB global headers:0KiB muxing overhead: 0.229546%\nframe=  250 fps= 29 q=-1.0 Lsize=    1652KiB time=00:00:04.96 bitrate=2729.0kbits/s speed=0.584x elapsed=0:00:08.49    \n[libx264 @ 0000020f87df59c0] frame I:1     Avg QP:40.14  size: 40767\n[libx264 @ 0000020f87df59c0] frame P:63    Avg QP:42.15  size: 14323\n[libx264 @ 0000020f87df59c0] frame B:186   Avg QP:45.60  size:  4001\n[libx264 @ 0000020f87df59c0] consecutive B-frames:  0.8%  0.0%  0.0% 99.2%\n[libx264 @ 0000020f87df59c0] mb I  I16..4: 41.2% 53.2%  5.6%\n[libx264 @ 0000020f87df59c0] mb P  I16..4:  5.0%  4.4%  0.2%  P16..4: 33.5%  4.5%  5.9%  0.0%  0.0%    skip:46.6%\n[libx264 @ 0000020f87df59c0] mb B  I16..4:  0.1%  0.1%  0.0%  B16..8: 42.9%  0.9%  0.1%  direct: 0.3%  skip:55.6%  L0:41.4% L1:58.2% BI: 0.4%\n[libx264 @ 0000020f87df59c0] 8x8 transform intra:47.8% inter:77.3%\n[libx264 @ 0000020f87df59c0] direct mvs  spatial:94.6% temporal:5.4%\n[libx264 @ 0000020f87df59c0] coded y,uvDC,uvAC intra: 22.6% 38.0% 6.9% inter: 2.3% 4.2% 0.0%\n[libx264 @ 0000020f87df59c0] i16 v,h,dc,p: 23% 25%  8% 44%\n[libx264 @ 0000020f87df59c0] i8 v,h,dc,ddl,ddr,vr,hd,vl,hu:  4%  3% 10% 13% 19% 12% 17% 10% 12%\n[libx264 @ 0000020f87df59c0] i4 v,h,dc,ddl,ddr,vr,hd,vl,hu:  3%  4%  5% 14% 20% 12% 18%  9% 17%\n[libx264 @ 0000020f87df59c0] i8c dc,h,v,p: 56% 24% 12%  9%\n[libx264 @ 0000020f87df59c0] Weighted P-Frames: Y:1.6% UV:1.6%\n[libx264 @ 0000020f87df59c0] ref P L0: 66.6%  6.1% 17.0%  4.9%  5.2%  0.1%\n[libx264 @ 0000020f87df59c0] ref B L0: 92.8%  5.5%  1.3%  0.4%\n[libx264 @ 0000020f87df59c0] ref B L1: 98.0%  2.0%\n[libx264 @ 0000020f87df59c0] kb/s:2699.77\n",
  "seconds": 8.927678346633911,
  "probe_out": {}
}